<svg width="53" height="53" viewBox="0 0 53 53" fill="none" xmlns="http://www.w3.org/2000/svg">
<path fill-rule="evenodd" clip-rule="evenodd" d="M7.06667 0C3.16385 0 0 3.16385 0 7.06667V12.3667C0 13.3424 0.790963 14.1333 1.76667 14.1333C2.74237 14.1333 3.53333 13.3424 3.53333 12.3667V7.06667C3.53333 5.11526 5.11526 3.53333 7.06667 3.53333H45.9333C47.8847 3.53333 49.4667 5.11526 49.4667 7.06667V45.9333C49.4667 47.5797 48.3406 48.9631 46.8167 49.3554V40.6333C46.8167 39.6576 46.0257 38.8667 45.05 38.8667C44.0743 38.8667 43.2833 39.6576 43.2833 40.6333V49.4667H38.6441C37.8596 46.4187 35.0928 44.1667 31.8 44.1667H21.2C17.9072 44.1667 15.1404 46.4187 14.3559 49.4667H9.71667V26.5C9.71667 24.5486 11.2986 22.9667 13.25 22.9667H16.7833C16.7833 26.8695 19.9472 30.0333 23.85 30.0333H24.7333V36.2167C24.7333 37.1924 25.5243 37.9833 26.5 37.9833C27.4757 37.9833 28.2667 37.1924 28.2667 36.2167V30.0333H29.15C33.0528 30.0333 36.2167 26.8695 36.2167 22.9667H39.75C41.7014 22.9667 43.2833 24.5486 43.2833 26.5V31.8C43.2833 32.7757 44.0743 33.5667 45.05 33.5667C46.0257 33.5667 46.8167 32.7757 46.8167 31.8V26.5C46.8167 22.5972 43.6528 19.4333 39.75 19.4333H13.25C9.34717 19.4333 6.18333 22.5972 6.18333 26.5V49.3554C4.65938 48.9631 3.53333 47.5797 3.53333 45.9333V21.2C3.53333 20.2243 2.74237 19.4333 1.76667 19.4333C0.790963 19.4333 0 20.2243 0 21.2V45.9333C0 49.8362 3.16385 53 7.06667 53H45.9333C49.8362 53 53 49.8362 53 45.9333V7.06667C53 3.16385 49.8362 0 45.9333 0H7.06667ZM29.15 26.5C31.1014 26.5 32.6833 24.918 32.6833 22.9667H20.3167C20.3167 24.918 21.8986 26.5 23.85 26.5H29.15ZM21.2 47.7C19.8921 47.7 18.7503 48.4106 18.1393 49.4667H34.8607C34.2497 48.4106 33.1079 47.7 31.8 47.7H21.2Z" fill="#D70000"/>
<path d="M17.6663 13.2496C18.642 13.2496 19.4329 12.4587 19.4329 11.483C19.4329 10.5072 18.642 9.71631 17.6663 9.71631H12.3663C11.3905 9.71631 10.5996 10.5072 10.5996 11.483C10.5996 12.4587 11.3905 13.2496 12.3663 13.2496H17.6663Z" fill="#D70000"/>
<path d="M37.1007 11.483C37.1007 12.4587 36.3098 13.2496 35.334 13.2496C34.3583 13.2496 33.5674 12.4587 33.5674 11.483C33.5674 10.5072 34.3583 9.71631 35.334 9.71631C36.3098 9.71631 37.1007 10.5072 37.1007 11.483Z" fill="#D70000"/>
<path d="M42.4 11.483C42.4 12.4587 41.6091 13.2496 40.6334 13.2496C39.6576 13.2496 38.8667 12.4587 38.8667 11.483C38.8667 10.5072 39.6576 9.71631 40.6334 9.71631C41.6091 9.71631 42.4 10.5072 42.4 11.483Z" fill="#D70000"/>
</svg>
