<svg class="offers__card-icon" width="52" height="52" viewBox="0 0 52 52" xmlns="http://www.w3.org/2000/svg">
    <path fill="#d70000" fill-rule="evenodd" clip-rule="evenodd" d="M0 6.95709C0 5.02939 1.67125 3.46667 3.73972 3.46667H48.2604C50.3257 3.46667 52 5.02651 52 6.95709V48.5096C52 50.4373 50.3288 52 48.2604 52H3.73972C1.67433 52 0 50.4401 0 48.5096V6.95709ZM3.71428 17.3333H48.2858V48.5333H3.71428V17.3333ZM11.1429 1.73333C11.1429 0.776043 11.9378 0 13.0174 0H16.6969C17.7322 0 18.5714 0.804041 18.5714 1.73333V3.46667H11.1429V1.73333ZM33.4286 1.73333C33.4286 0.776043 34.2236 0 35.3031 0H38.9826C40.0179 0 40.8571 0.804041 40.8571 1.73333V3.46667H33.4286V1.73333Z"/>
    <path stroke="#d70000" d="M15.9727 33.28L23.2155 38.48L33.8012 26.52" fill="none" stroke-width="3"/>
</svg>  