<svg width="52" height="52" viewBox="0 0 52 52" xmlns="http://www.w3.org/2000/svg">
    <path fill="#d70000" d="M21.5979 1.07578C22.7968 0.372063 24.1719 0 25.5738 0C26.9756 0 28.3507 0.372063 29.5496 1.07578L47.4513 11.586C48.5794 12.2481 49.5122 13.1808 50.1597 14.294C50.8071 15.4072 51.1474 16.6633 51.1475 17.941V19.8039C51.1475 20.4609 50.8781 21.091 50.3985 21.5556C49.9189 22.0202 49.2684 22.2812 48.5902 22.2812C47.9119 22.2812 47.2614 22.0202 46.7818 21.5556C46.3022 21.091 46.0328 20.4609 46.0328 19.8039V17.941C46.0332 17.5148 45.9202 17.0957 45.7045 16.7243C45.4889 16.3528 45.178 16.0415 44.8018 15.8205L26.9002 5.31355C26.5003 5.07855 26.0415 4.95429 25.5738 4.95429C25.106 4.95429 24.6473 5.07855 24.2473 5.31355L6.34571 15.8205C5.96956 16.0415 5.65864 16.3528 5.443 16.7243C5.22736 17.0957 5.11431 17.5148 5.11476 17.941V34.8789C5.11431 35.305 5.22736 35.7241 5.443 36.0956C5.65864 36.467 5.96956 36.7784 6.34571 36.9994L20.0805 45.0588C20.3678 45.2275 20.6179 45.4494 20.8166 45.7117C21.0154 45.9741 21.1588 46.2718 21.2388 46.5879C21.3187 46.904 21.3336 47.2322 21.2826 47.5538C21.2316 47.8755 21.1157 48.1843 20.9415 48.4625C20.7673 48.7408 20.5383 48.9831 20.2674 49.1756C19.9965 49.3681 19.6892 49.507 19.3629 49.5845C19.0366 49.6619 18.6978 49.6763 18.3657 49.6269C18.0337 49.5775 17.7149 49.4653 17.4277 49.2965L3.69626 41.2372C2.56718 40.5744 1.63374 39.6407 0.986217 38.5263C0.338696 37.4118 -0.000993008 36.1544 2.18042e-06 34.8756V17.941C0.000180117 16.6633 0.340426 15.4072 0.987891 14.294C1.63536 13.1808 2.56817 12.2481 3.69626 11.586L21.5979 1.07578Z"/>
    <path fill="#d70000" fill-rule="evenodd" clip-rule="evenodd" d="M38.3581 24.1817L38.3615 24.043V23.0984C38.3615 22.4413 38.0921 21.8112 37.6125 21.3467C37.1329 20.8821 36.4824 20.6211 35.8041 20.6211C35.1259 20.6211 34.4754 20.8821 33.9958 21.3467C33.5162 21.8112 33.2468 22.4413 33.2468 23.0984V24.043L33.2502 24.1817C31.6463 24.4972 30.1203 25.1096 28.756 25.9852C28.7229 25.9512 28.6888 25.9182 28.6537 25.8861L27.9683 25.2156C27.4835 24.778 26.8423 24.5398 26.1798 24.5511C25.5173 24.5624 24.8851 24.8224 24.4166 25.2763C23.948 25.7302 23.6796 26.3425 23.6679 26.9843C23.6563 27.6261 23.9022 28.2472 24.3539 28.7168L25.0393 29.3873L25.1416 29.4798C24.255 30.7812 23.6072 32.2543 23.2764 33.8365C23.231 33.8344 23.1855 33.8333 23.14 33.8332H22.1648C21.4865 33.8332 20.8361 34.0942 20.3565 34.5587C19.8769 35.0233 19.6074 35.6534 19.6074 36.3104C19.6074 36.9674 19.8769 37.5975 20.3565 38.0621C20.8361 38.5267 21.4865 38.7877 22.1648 38.7877H23.14L23.2696 38.7844C23.6003 40.3698 24.2448 41.843 25.1348 43.1444C25.1021 43.1732 25.0703 43.203 25.0393 43.2336L24.3505 43.9008C23.8988 44.3704 23.6528 44.9915 23.6645 45.6333C23.6762 46.275 23.9446 46.8874 24.4132 47.3413C24.8817 47.7951 25.5139 48.0551 26.1764 48.0664C26.8389 48.0778 27.4801 47.8395 27.9649 47.402L28.6571 46.7347C28.6863 46.7068 28.7147 46.6782 28.7424 46.6489C30.0893 47.511 31.6135 48.1352 33.2502 48.4589L33.2468 48.5778V49.5225C33.2468 50.1795 33.5162 50.8096 33.9958 51.2742C34.4754 51.7388 35.1259 51.9998 35.8041 51.9998C36.4824 51.9998 37.1329 51.7388 37.6125 51.2742C38.0921 50.8096 38.3615 50.1795 38.3615 49.5225V48.5778V48.4589C39.9982 48.1385 41.519 47.511 42.8625 46.6489L42.9512 46.7347L43.6399 47.4053C44.1225 47.8563 44.7686 48.1057 45.4392 48.0998C46.1097 48.0938 46.751 47.833 47.2249 47.3735C47.6989 46.9139 47.9675 46.2925 47.973 45.6429C47.9785 44.9934 47.7205 44.3678 47.2544 43.9008L46.569 43.2336C46.538 43.204 46.5062 43.1754 46.4735 43.1477C47.3635 41.843 48.0079 40.3665 48.3387 38.7844H49.4435C50.1217 38.7844 50.7722 38.5234 51.2518 38.0588C51.7314 37.5942 52.0009 36.9641 52.0009 36.3071C52.0009 35.6501 51.7314 35.02 51.2518 34.5554C50.7722 34.0909 50.1217 33.8299 49.4435 33.8299H48.4683L48.3319 33.8365C48.0053 32.2815 47.372 30.8023 46.4667 29.4798L46.569 29.3873L47.2578 28.7201C47.7239 28.2531 47.9819 27.6274 47.9764 26.9779C47.9709 26.3284 47.7023 25.7069 47.2283 25.2474C46.7544 24.7879 46.1131 24.527 45.4426 24.5211C44.772 24.5151 44.1259 24.7646 43.6434 25.2156L42.9512 25.8828L42.8523 25.9819C41.4877 25.1074 39.9618 24.4962 38.3581 24.1817ZM35.8041 28.8885C34.7962 28.8872 33.798 29.0786 32.8666 29.4516C31.9351 29.8246 31.0888 30.372 30.3761 31.0624C29.6634 31.7527 29.0984 32.5725 28.7133 33.4748C28.3282 34.377 28.1307 35.344 28.132 36.3203C28.1307 37.2967 28.3282 38.2636 28.7133 39.1659C29.0984 40.0682 29.6634 40.8879 30.3761 41.5783C31.0888 42.2687 31.9351 42.816 32.8666 43.1891C33.798 43.5621 34.7962 43.7534 35.8041 43.7521C36.812 43.7534 37.8103 43.5621 38.7417 43.1891C39.6732 42.816 40.5195 42.2687 41.2322 41.5783C41.9449 40.8879 42.5099 40.0682 42.895 39.1659C43.2801 38.2636 43.4776 37.2967 43.4763 36.3203C43.4776 35.344 43.2801 34.377 42.895 33.4748C42.5099 32.5725 41.9449 31.7527 41.2322 31.0624C40.5195 30.372 39.6732 29.8246 38.7417 29.4516C37.8103 29.0786 36.812 28.8872 35.8041 28.8885Z"/>
</svg>