<svg fill="#d70000" width="52" height="52" viewBox="0 0 52 52" xmlns="http://www.w3.org/2000/svg">
    <path d="M48.2277 0L41.0192 4.3797L40.9678 8.3388L25.0562 24.191L22.8755 22.013C22.1024 21.2409 20.8509 21.2409 20.0779 22.013C19.3048 22.7851 18.5931 23.3202 18.5931 23.3202L19.4037 24.1298C19.3958 24.1219 19.3859 24.114 19.378 24.1061C15.4475 28.0297 12.9129 29.1651 12.9129 29.1651L0.579782 41.6466C-0.193261 42.4206 -0.193261 43.6647 0.579782 44.4387L7.57078 51.4209C8.34185 52.193 9.59335 52.193 10.3664 51.4209L22.6975 38.9394C22.6975 38.9394 23.8324 36.4119 27.7668 32.4804L28.4667 33.1795C28.4667 33.1795 29.0895 32.5555 29.8645 31.7834C30.6375 31.0113 30.6375 29.7634 29.8645 28.9913L27.745 26.8745L43.5974 10.965L47.6445 10.9631L52 3.76756L48.2277 0ZM1.93607 42.9242L14.4866 30.3893L15.8845 31.7834L3.33387 44.3202L1.93607 42.9242ZM4.73168 45.8051L17.2823 33.2663L18.6801 34.6663L6.12948 47.2012L4.73168 45.8051ZM8.92509 49.9933L7.52729 48.5972L20.0779 36.0604L21.4776 37.4565L8.92509 49.9933Z"/>
</svg>   